<svg width="277" height="163" viewBox="0 0 277 163" fill="none" xmlns="http://www.w3.org/2000/svg">
<g clip-path="url(#clip0_94_26)">
<path d="M104.282 43.2641L95.3247 43.5551L96.7677 70.485L111.791 76.8569L114.101 85.253C114.101 85.253 122.477 83.8066 128.834 81.4872C128.834 81.4872 131.144 75.4062 129.125 71.9314C127.101 68.4566 114.391 66.4282 114.391 66.4282C106.015 52.8199 116.701 37.1832 107.748 35.4458C98.7913 33.7083 88.1181 36.3145 88.1181 36.3145C88.1181 36.3145 86.9526 69.6163 90.7053 75.6972C94.4623 81.7782 108.039 85.8307 108.039 85.8307L109.482 101.758L73.0817 79.7498V27.3364L118.767 0.988525L164.944 27.6274V80.0407L139.52 94.8087L139.23 67.5879C139.23 67.5879 124.787 68.7476 124.206 64.6908C124.206 64.6908 130.273 61.5069 134.316 62.0846V53.9753H144.716V60.9249C144.716 60.9249 152.226 60.6339 153.959 62.9533" stroke="white" stroke-width="4" stroke-miterlimit="10"/>
<path d="M118.703 1.75879V12.9022" stroke="white" stroke-width="4" stroke-miterlimit="10"/>
<path d="M118.703 24.7088C120.516 24.7088 121.986 23.2355 121.986 21.418C121.986 19.6005 120.516 18.1272 118.703 18.1272C116.89 18.1272 115.42 19.6005 115.42 21.418C115.42 23.2355 116.89 24.7088 118.703 24.7088Z" stroke="white" stroke-width="4" stroke-miterlimit="10"/>
<path d="M118.703 26.4377C123.379 26.4377 127.169 24.5773 127.169 22.2824C127.169 19.9876 123.379 18.1272 118.703 18.1272C114.028 18.1272 110.237 19.9876 110.237 22.2824C110.237 24.5773 114.028 26.4377 118.703 26.4377Z" stroke="white" stroke-width="4" stroke-miterlimit="10"/>
<path d="M110.237 22.2824C110.237 22.2824 109.319 12.9021 118.703 12.9021C126.708 12.9021 127.609 20.9601 127.169 22.2824" stroke="white" stroke-width="4" stroke-miterlimit="10"/>
<path d="M110.237 162.247V118.161H127.246C130.277 118.161 132.924 119.303 135.187 121.589C137.45 123.874 138.585 126.536 138.585 129.574C138.585 132.612 137.454 135.347 135.187 137.777C132.92 140.212 130.277 141.428 127.246 141.428L140.344 162.247H138.389L125.291 141.428H111.706V162.247H110.242H110.237ZM111.706 119.629V139.468H127.246C129.885 139.468 132.19 138.479 134.162 136.502C136.135 134.525 137.121 132.214 137.121 129.57C137.121 126.925 136.135 124.606 134.162 122.616C132.19 120.626 129.885 119.629 127.246 119.629H111.706Z" fill="white"/>
<path d="M140.344 162.247L156.03 118.161H157.494L173.179 162.247H171.715L167.023 148.921L146.496 149.019L141.804 162.247H140.34H140.344ZM156.764 120.219L147.039 147.551H166.489L156.764 120.219Z" fill="white"/>
<path d="M185.603 119.629V118.161H216.88V119.629L187.755 160.775H216.88V162.242H185.603V160.775L214.728 119.629H185.603Z" fill="white"/>
<path d="M221.772 162.247V118.161H249.139V119.629H223.237V139.468H240.34V140.936H223.237V160.775H249.139V162.242H221.772V162.247Z" fill="white"/>
<path d="M249.634 150.098H251.098C251.098 152.383 252.029 154.737 253.882 157.15C255.739 159.568 258.719 160.775 262.826 160.775C266.933 160.775 270.075 160.039 272.257 158.571C274.438 157.103 275.531 154.668 275.531 151.27C275.531 147.872 273.371 145.018 269.055 142.699C264.739 140.379 260.422 138.291 256.106 136.43C251.79 134.568 249.63 131.906 249.63 128.444C249.63 124.982 250.834 122.402 253.246 120.703C255.658 119.004 259.043 118.157 263.411 118.157C267.778 118.157 271.134 119.008 273.478 120.703C275.822 122.402 276.996 124.623 276.996 127.366H275.531C275.531 124.884 274.374 122.975 272.06 121.636C269.747 120.296 266.801 119.629 263.215 119.629C259.628 119.629 256.717 120.331 254.467 121.734C252.217 123.138 251.094 125.278 251.094 128.153C251.094 131.029 253.25 133.443 257.571 135.402C261.887 137.362 266.203 139.519 270.519 141.869C274.836 144.218 276.996 147.29 276.996 151.078C276.996 154.865 275.792 157.676 273.38 159.504C270.968 161.331 267.415 162.247 262.728 162.247C258.04 162.247 254.68 160.873 252.661 158.13C250.641 155.387 249.63 152.708 249.63 150.098H249.634Z" fill="white"/>
<path d="M0 161.1V117.014H27.3661V118.482H1.46437V138.321H18.5671V139.789H1.46437V159.628H27.3661V161.096H0V161.1Z" fill="white"/>
<path d="M38.9402 158.896C42.458 158.896 45.5362 156.838 48.1746 152.725L49.1993 153.752C46.2663 158.16 42.8466 160.364 38.9359 160.364C35.0252 160.364 31.6055 158.16 28.6725 153.752C25.7395 149.345 24.2751 144.201 24.2751 138.321C24.2751 132.441 25.7395 127.297 28.6725 122.89C31.6055 118.482 35.0252 116.278 38.9359 116.278C42.8466 116.278 46.2663 118.482 49.1993 122.89L48.1746 123.917C45.5362 119.8 42.458 117.746 38.9402 117.746C35.4223 117.746 32.3441 119.804 29.7014 123.917C27.063 128.033 25.7438 132.831 25.7438 138.317C25.7438 143.803 27.063 148.604 29.7014 152.717C32.3398 156.833 35.418 158.887 38.9402 158.887V158.896Z" fill="white"/>
<path d="M63.8643 160.364C59.9537 160.364 56.534 158.16 53.601 153.752C50.668 149.345 49.2036 144.201 49.2036 138.321C49.2036 132.441 50.668 127.297 53.601 122.89C56.534 118.482 59.9537 116.278 63.8643 116.278C67.775 116.278 71.1947 118.482 74.1277 122.89C77.0607 127.297 78.5251 132.441 78.5251 138.321C78.5251 144.201 77.0607 149.345 74.1277 153.752C71.1947 158.16 67.775 160.364 63.8643 160.364ZM63.8643 158.896C67.3822 158.896 70.4604 156.838 73.0988 152.725C75.7372 148.608 77.0565 143.811 77.0565 138.325C77.0565 132.839 75.7372 128.038 73.0988 123.925C70.4604 119.809 67.3822 117.754 63.8643 117.754C60.3465 117.754 57.2683 119.813 54.6256 123.925C51.9872 128.042 50.668 132.839 50.668 138.325C50.668 143.811 51.9872 148.613 54.6256 152.725C57.264 156.842 60.3422 158.896 63.8643 158.896Z" fill="white"/>
<path d="M177.316 117.318V163" stroke="white" stroke-width="4" stroke-miterlimit="10"/>
</g>
<defs>
<clipPath id="clip0_94_26">
<rect width="277" height="163" fill="white"/>
</clipPath>
</defs>
</svg>
