<?xml version="1.0" encoding="UTF-8"?>
<svg id="Camada_2" data-name="Camada 2" xmlns="http://www.w3.org/2000/svg" viewBox="0 0 648.82 380.9">
  <defs>
    <style>
      .cls-1 {
        fill: none;
        stroke: #1d1d1b;
        stroke-miterlimit: 10;
        stroke-width: 4px;
      }

      .cls-2 {
        fill: #1d1d1b;
      }
    </style>
  </defs>
  <g id="Camada_2-2" data-name="Camada 2">
    <g>
      <path class="cls-1" d="M244.26,101.1l-20.98.68,3.38,62.93,35.19,14.89,5.41,19.62s19.62-3.38,34.51-8.8c0,0,5.41-14.21.68-22.33-4.74-8.12-34.51-12.86-34.51-12.86-19.62-31.8,5.41-68.34-15.56-72.4-20.98-4.06-45.98,2.03-45.98,2.03,0,0-2.73,77.82,6.06,92.03,8.8,14.21,40.6,23.68,40.6,23.68l3.38,37.22-85.26-51.43V63.88L278.19,2.31l108.16,62.25v122.48l-59.55,34.51-.68-63.61s-33.83,2.71-35.19-6.77c0,0,14.21-7.44,23.68-6.09v-18.95h24.36v16.24s17.59-.68,21.65,4.74"/>
      <line class="cls-1" x1="278.04" y1="4.11" x2="278.04" y2="30.15"/>
      <circle class="cls-1" cx="278.04" cy="50.05" r="7.69"/>
      <ellipse class="cls-1" cx="278.04" cy="52.07" rx="19.83" ry="9.71"/>
      <path class="cls-1" d="M258.21,52.07s-2.15-21.92,19.83-21.92c18.75,0,20.86,18.83,19.83,21.92"/>
    </g>
    <g>
      <path class="cls-2" d="M258.21,379.14v-103.02h39.84c7.1,0,13.3,2.67,18.6,8.01,5.3,5.34,7.96,11.56,7.96,18.66s-2.65,13.49-7.96,19.17c-5.31,5.69-11.5,8.53-18.6,8.53l30.68,48.65h-4.58l-30.68-48.65h-31.82v48.65h-3.43ZM261.65,279.55v46.36h36.4c6.18,0,11.58-2.31,16.2-6.93,4.62-4.62,6.93-10.02,6.93-16.2s-2.31-11.6-6.93-16.25c-4.62-4.65-10.02-6.98-16.2-6.98h-36.4Z"/>
      <path class="cls-2" d="M328.73,379.14l36.74-103.02h3.43l36.74,103.02h-3.43l-10.99-31.14-48.08.23-10.99,30.91h-3.43ZM367.19,280.93l-22.78,63.87h45.56l-22.78-63.87Z"/>
      <path class="cls-2" d="M434.74,279.55v-3.43h73.26v3.43l-68.22,96.15h68.22v3.43h-73.26v-3.43l68.22-96.15h-68.22Z"/>
      <path class="cls-2" d="M519.46,379.14v-103.02h64.1v3.43h-60.67v46.36h40.06v3.43h-40.06v46.36h60.67v3.43h-64.1Z"/>
      <path class="cls-2" d="M584.72,350.75h3.43c0,5.34,2.18,10.84,6.52,16.48,4.35,5.65,11.33,8.47,20.95,8.47s16.98-1.72,22.09-5.15c5.11-3.43,7.67-9.12,7.67-17.06s-5.06-14.61-15.17-20.03c-10.11-5.42-20.22-10.3-30.33-14.65-10.11-4.35-15.17-10.57-15.17-18.66s2.82-14.12,8.47-18.09c5.65-3.97,13.58-5.95,23.81-5.95s18.09,1.99,23.58,5.95c5.49,3.97,8.24,9.16,8.24,15.57h-3.43c0-5.8-2.71-10.26-8.13-13.39-5.42-3.13-12.32-4.69-20.72-4.69s-15.22,1.64-20.49,4.92c-5.27,3.28-7.9,8.28-7.9,15s5.05,12.36,15.17,16.94c10.11,4.58,20.22,9.62,30.33,15.11,10.11,5.49,15.17,12.67,15.17,21.52s-2.82,15.42-8.47,19.69c-5.65,4.27-13.97,6.41-24.95,6.41s-18.85-3.21-23.58-9.62c-4.73-6.41-7.1-12.67-7.1-18.77Z"/>
      <path class="cls-2" d="M0,376.46v-103.02h64.1v3.43H3.43v46.36h40.06v3.43H3.43v46.36h60.67v3.43H0Z"/>
      <path class="cls-2" d="M91.21,371.31c8.24,0,15.45-4.81,21.63-14.42l2.4,2.4c-6.87,10.3-14.88,15.45-24.04,15.45s-17.17-5.15-24.04-15.45c-6.87-10.3-10.3-22.32-10.3-36.06s3.43-25.76,10.3-36.06c6.87-10.3,14.88-15.45,24.04-15.45s17.17,5.15,24.04,15.45l-2.4,2.4c-6.18-9.62-13.39-14.42-21.63-14.42s-15.45,4.81-21.64,14.42c-6.18,9.62-9.27,20.83-9.27,33.65s3.09,24.04,9.27,33.65c6.18,9.62,13.39,14.42,21.64,14.42Z"/>
      <path class="cls-2" d="M149.59,374.74c-9.16,0-17.17-5.15-24.04-15.45-6.87-10.3-10.3-22.32-10.3-36.06s3.43-25.76,10.3-36.06c6.87-10.3,14.88-15.45,24.04-15.45s17.17,5.15,24.04,15.45c6.87,10.3,10.3,22.32,10.3,36.06s-3.43,25.76-10.3,36.06c-6.87,10.3-14.88,15.45-24.04,15.45ZM149.59,371.31c8.24,0,15.45-4.81,21.63-14.42,6.18-9.62,9.27-20.83,9.27-33.65s-3.09-24.04-9.27-33.65c-6.18-9.62-13.39-14.42-21.63-14.42s-15.45,4.81-21.64,14.42c-6.18,9.62-9.27,20.83-9.27,33.65s3.09,24.04,9.27,33.65c6.18,9.62,13.39,14.42,21.64,14.42Z"/>
      <line class="cls-1" x1="415.33" y1="274.15" x2="415.33" y2="380.9"/>
    </g>
  </g>
</svg>